<svg width="100%" height="100%" viewBox="0 0 19 19" fill="none" xmlns="http://www.w3.org/2000/svg">
<g id="logos">
<path id="Ajustes" fill-rule="evenodd" clip-rule="evenodd" d="M16.3532 9.00058L18.8937 6.70771C18.9876 6.62295 19.0248 6.48879 18.9852 6.36805C18.8303 5.89789 18.6412 5.44358 18.4199 5.00757C18.3638 4.89476 18.243 4.82707 18.1162 4.83377L14.7013 5.00818C14.3019 5.02891 13.9732 4.69962 13.9939 4.30081L14.1677 0.884678C14.1738 0.758446 14.1061 0.637704 13.9927 0.580382C13.5567 0.360245 13.1024 0.1712 12.6322 0.0156985C12.5121 -0.0239346 12.3785 0.0132571 12.2926 0.107171L10.0003 2.6464C9.73259 2.94215 9.26792 2.94215 9.00022 2.6464L6.70796 0.10778C6.62319 0.0138651 6.48904 -0.0233266 6.36829 0.0163065C5.89813 0.170592 5.44383 0.359627 5.00781 0.580373C4.89439 0.637695 4.82792 0.758437 4.83402 0.884669L5.00781 4.3008C5.02916 4.69961 4.69986 5.02891 4.30166 5.00817L0.884923 4.83376C0.758083 4.82706 0.637341 4.89474 0.581245 5.00756C0.359882 5.44357 0.170846 5.89788 0.0159526 6.36804C-0.0242977 6.48878 0.0135112 6.62294 0.108034 6.7077L2.64665 8.99935C2.94302 9.26766 2.94302 9.73355 2.64665 10.0013L0.108034 12.2929C0.0135112 12.3777 -0.0242977 12.5124 0.0159526 12.6326C0.170846 13.1021 0.359882 13.5564 0.580019 13.9918C0.637341 14.1046 0.758083 14.1729 0.884315 14.1662L4.30166 13.9924C4.69986 13.9723 5.02916 14.301 5.00781 14.6998L4.83402 18.1159C4.82792 18.2422 4.89439 18.3629 5.00781 18.4202C5.44383 18.641 5.89813 18.83 6.36829 18.9843C6.48904 19.0239 6.62319 18.9867 6.70796 18.8928L9.00022 16.3542C9.26792 16.0584 9.73259 16.0584 10.0003 16.3542L12.2926 18.8928C12.3785 18.9867 12.5121 19.0239 12.6322 18.9843C13.1024 18.8294 13.5567 18.641 13.9927 18.4202C14.1061 18.3629 14.1738 18.2422 14.1677 18.1159L13.9939 14.6998C13.9732 14.301 14.3019 13.9723 14.7013 13.9924L18.1168 14.1662C18.2436 14.1729 18.3644 14.1046 18.4211 13.9918C18.6412 13.5564 18.8303 13.1021 18.9852 12.6326C19.0248 12.5124 18.9876 12.3777 18.8937 12.2929L16.3532 10.0013C16.0569 9.73355 16.0569 9.26828 16.3532 9.00056M9.50061 12.834C7.65839 12.834 6.16559 11.3412 6.16559 9.49958C6.16559 7.65736 7.65839 6.16456 9.50061 6.16456C11.3416 6.16456 12.8344 7.65736 12.8344 9.49958C12.8344 11.3412 11.3416 12.834 9.50061 12.834Z" fill="currentColor"/>
</g>
</svg>
