<svg width="100%" height="100%" viewBox="0 0 18 20" fill="none" xmlns="http://www.w3.org/2000/svg">
<g id="A&#195;&#177;adir&#226;&#128;&#168;Participante">
<path d="M7.54375 10.0368C10.3321 10.0367 11.3354 7.24477 11.598 4.95143C11.9215 2.12629 10.5856 0 7.54375 0C4.50233 0 3.16567 2.12612 3.48945 4.95143C3.75235 7.24477 4.75532 10.037 7.54375 10.0368Z" fill="white"/>
<path d="M13.6409 11.1989C13.7306 11.1989 13.8198 11.2016 13.9083 11.2065C13.7756 11.0173 13.622 10.8503 13.4423 10.7161C12.9065 10.3162 12.2126 10.185 11.5991 9.94393C11.3005 9.82664 11.0331 9.71013 10.7821 9.57747C9.93489 10.5066 8.83008 10.9926 7.54354 10.9927C6.25741 10.9927 5.15271 10.5067 4.30559 9.57747C4.05457 9.71016 3.78712 9.82664 3.48856 9.94393C2.87512 10.185 2.18125 10.3162 1.64543 10.7161C0.718811 11.4077 0.479343 12.9635 0.291192 14.0248C0.135914 14.9009 0.0315982 15.7949 0.00115105 16.6848C-0.0224366 17.3741 0.317886 17.4707 0.894538 17.6788C1.61657 17.9392 2.36208 18.1325 3.11262 18.291C4.56208 18.5971 6.05616 18.8323 7.5438 18.8428C8.26463 18.8377 8.98692 18.7795 9.70493 18.6864C9.17329 17.9161 8.86147 16.9831 8.86147 15.9784C8.8615 13.343 11.0055 11.1989 13.6409 11.1989Z" fill="currentColor"/>
<path d="M13.4599 12.0792C11.3934 12.0792 9.68286 13.7604 9.68286 15.8269C9.68286 17.8934 11.3934 19.604 13.4599 19.604C15.5264 19.604 17.2076 17.8934 17.2076 15.8269C17.2076 13.7604 15.5264 12.0792 13.4599 12.0792ZM15.444 16.2678H13.9008V17.8403C13.9008 18.0834 13.7029 18.2812 13.4599 18.2812C13.2168 18.2812 13.019 18.0834 13.019 17.8403V16.2678H11.4465C11.2034 16.2678 11.0056 16.07 11.0056 15.8269C11.0056 15.5838 11.2034 15.386 11.4465 15.386H13.019V13.8428C13.019 13.5997 13.2168 13.4019 13.4599 13.4019C13.7029 13.4019 13.9008 13.5997 13.9008 13.8428V15.386H15.444C15.6869 15.386 15.8849 15.5838 15.8849 15.8269C15.8849 16.07 15.6869 16.2678 15.444 16.2678Z" fill="currentColor"/>
</g>
</svg>
