<?xml version="1.0" encoding="UTF-8"?>
<svg id="Capa_2" width="100%" height="100%" data-name="Capa 2" xmlns="http://www.w3.org/2000/svg" viewBox="0 0 23.32 20">
  <g id="Capa_2-2" data-name="Capa 2">
    <path class="cls-1" d="M21.92,8.36c-.1-.02-.19-.02-.29-.02H5.18l.36-.17c.35-.17.67-.39.94-.67l4.61-4.61c.61-.58.71-1.51.24-2.21-.54-.74-1.59-.9-2.33-.36-.06.04-.12.09-.17.14L.49,8.81c-.65.65-.65,1.71,0,2.36,0,0,0,0,0,0l8.34,8.34c.65.65,1.71.65,2.36,0,.05-.05.1-.11.14-.16.47-.7.37-1.63-.24-2.21l-4.61-4.62c-.24-.25-.53-.45-.83-.61l-.5-.23h16.39c.85.03,1.6-.56,1.76-1.4.15-.91-.47-1.77-1.38-1.91Z" fill="currentColor"/>
  </g>
</svg>