<svg width="100%" height="100%" viewBox="0 0 22 22" fill="none" xmlns="http://www.w3.org/2000/svg">
<g id="Trash">
<g id="Group">
<g id="Group_2">
<path id="Vector" d="M2.67285 6.44531L3.81449 20.2269C3.8963 21.2208 4.74287 22 5.74052 22H16.2595C17.2571 22 18.1037 21.2208 18.1855 20.2269L19.3271 6.44531H2.67285ZM7.77672 19.4219C7.43933 19.4219 7.15548 19.1594 7.13408 18.8176L6.48955 8.41917C6.46751 8.06356 6.73752 7.75766 7.09253 7.73562C7.46073 7.7098 7.75343 7.98299 7.77608 8.3386L8.42061 18.737C8.44343 19.1053 8.15205 19.4219 7.77672 19.4219ZM11.6445 18.7773C11.6445 19.1336 11.3562 19.4219 11 19.4219C10.6437 19.4219 10.3554 19.1336 10.3554 18.7773V8.37891C10.3554 8.02265 10.6437 7.73438 11 7.73438C11.3562 7.73438 11.6445 8.02265 11.6445 8.37891V18.7773ZM15.5104 8.41921L14.8659 18.8176C14.8447 19.156 14.5627 19.4379 14.1823 19.4206C13.8273 19.3986 13.5573 19.0927 13.5794 18.7371L14.2239 8.33864C14.2459 7.98304 14.5575 7.72432 14.9074 7.73566C15.2624 7.75771 15.5325 8.0636 15.5104 8.41921Z" fill="currentColor"/>
</g>
</g>
<g id="Group_3">
<g id="Group_4">
<path id="Vector_2" d="M19.3789 2.57812H15.5117V1.93359C15.5117 0.867367 14.6444 0 13.5781 0H8.42188C7.35565 0 6.48828 0.867367 6.48828 1.93359V2.57812H2.62109C1.90914 2.57812 1.33203 3.15524 1.33203 3.86719C1.33203 4.57905 1.90914 5.15625 2.62109 5.15625C8.54932 5.15625 13.4509 5.15625 19.3789 5.15625C20.0909 5.15625 20.668 4.57905 20.668 3.86719C20.668 3.15524 20.0909 2.57812 19.3789 2.57812ZM14.2227 2.57812H7.77734V1.93359C7.77734 1.57798 8.06627 1.28906 8.42188 1.28906H13.5781C13.9337 1.28906 14.2227 1.57798 14.2227 1.93359V2.57812Z" fill="currentColor"/>
</g>
</g>
</g>
</svg>
