<svg width="100%" height="100%" viewBox="0 0 18 19" fill="none" xmlns="http://www.w3.org/2000/svg">
<g id="calendario">
<path id="Trazado 21630" fill-rule="evenodd" clip-rule="evenodd" d="M17.395 2.52733V5.14686H0V2.52733C0.01345 1.47585 0.84685 0.633853 1.86343 0.644653H3.10436V1.92991C3.10436 2.99465 3.93883 3.8578 4.9682 3.8578C5.99757 3.8578 6.83204 2.99466 6.83204 1.92991V0.644653H10.5597V1.92991C10.5597 2.99465 11.3942 3.8578 12.4235 3.8578C13.4529 3.8578 14.2874 2.99466 14.2874 1.92991V0.644653H15.53C16.5472 0.632913 17.3816 1.47518 17.395 2.52733H17.395Z" fill="currentColor"/>
<path id="Trazado 21631" fill-rule="evenodd" clip-rule="evenodd" d="M0 6.28125V16.6081C0.01345 17.6596 0.84685 18.5016 1.86343 18.4908H15.5316C16.5482 18.5016 17.3815 17.6596 17.395 16.6081V6.28125H0ZM5.59111 15.2781C5.58977 15.6322 5.31258 15.9189 4.97024 15.9203H3.72768C3.38534 15.9189 3.10815 15.6322 3.10681 15.2781V13.9928C3.10815 13.6387 3.38534 13.352 3.72768 13.3506H4.97024C5.31258 13.352 5.58977 13.6387 5.59111 13.9928V15.2781ZM5.59111 10.7801C5.58977 11.1342 5.31258 11.4209 4.97024 11.4223H3.72768C3.38534 11.4209 3.10815 11.1342 3.10681 10.7801V9.49228C3.10815 9.13818 3.38534 8.85146 3.72768 8.85007H4.97024C5.31258 8.85146 5.58977 9.13817 5.59111 9.49228V10.7801ZM9.93965 15.2781C9.93831 15.6322 9.66112 15.9189 9.31878 15.9203H8.07622C7.73388 15.9189 7.45669 15.6322 7.45535 15.2781V13.9928C7.45669 13.6387 7.73388 13.352 8.07622 13.3506H9.31878C9.66112 13.352 9.9383 13.6387 9.93965 13.9928V15.2781ZM9.93965 10.7801C9.93831 11.1342 9.66112 11.4209 9.31878 11.4223H8.07622C7.73388 11.4209 7.45669 11.1342 7.45535 10.7801V9.49228C7.45669 9.13818 7.73388 8.85146 8.07622 8.85007H9.31878C9.66112 8.85146 9.93831 9.13817 9.93965 9.49228V10.7801ZM14.2882 10.7801C14.2869 11.1342 14.0097 11.4209 13.6673 11.4223H12.4256C12.0833 11.4209 11.8061 11.1342 11.8047 10.7801V9.49228C11.8061 9.13818 12.0833 8.85146 12.4256 8.85007H13.6681C14.0105 8.85146 14.2877 9.13817 14.289 9.49228L14.2882 10.7801Z" fill="currentColor"/>
<path id="Trazado 21632" fill-rule="evenodd" clip-rule="evenodd" d="M5.62217 0.64263V1.92789C5.62217 2.2828 5.33446 2.57052 4.97954 2.57052C4.62462 2.57052 4.33691 2.28281 4.33691 1.92789V0.64263C4.33691 0.28772 4.62462 0 4.97954 0C5.33445 0 5.62217 0.28771 5.62217 0.64263Z" fill="currentColor"/>
<path id="Trazado 21633" fill-rule="evenodd" clip-rule="evenodd" d="M13.0582 0.64263V1.92789C13.0582 2.2828 12.7705 2.57052 12.4156 2.57052C12.0607 2.57052 11.7729 2.28281 11.7729 1.92789V0.64263C11.7729 0.28772 12.0607 0 12.4156 0C12.7705 0 13.0582 0.28771 13.0582 0.64263Z" fill="currentColor"/>
</g>
</svg>
