<svg width="100%" height="100%" viewBox="0 0 20 20" fill="none" xmlns="http://www.w3.org/2000/svg">
<g id="Group">
<path id="Vector" d="M10 0C4.47715 0 0 4.47715 0 10C0 15.5229 4.47715 20 10 20C15.5229 20 20 15.5229 20 10C20 4.47715 15.5229 0 10 0ZM2.48915 10C2.48915 5.85186 5.85189 2.48915 10 2.48915C11.6252 2.48915 13.1299 3.0055 14.359 3.88292L3.88292 14.359C3.0055 13.1299 2.48915 11.6253 2.48915 10ZM10 17.5109C8.37573 17.5109 6.87198 16.9952 5.6433 16.1188L16.1188 5.64334C16.9952 6.87202 17.5108 8.37581 17.5108 10C17.5109 14.1481 14.1481 17.5109 10 17.5109Z" fill="currentColor"/>
</g>
</svg>
