<svg width="100%" height="100%" viewBox="0 0 23 21" fill="none" xmlns="http://www.w3.org/2000/svg">
<g id="listado">
<g id="PieChart">
<g id="Group">
<g id="Group_2">
<path id="Vector" d="M21.8171 11.3789H14.2498C13.9191 11.3789 13.6495 11.6485 13.6495 11.9791C13.6495 12.1476 13.7211 12.2993 13.8327 12.4087L19.1612 17.7372C19.2707 17.8552 19.4288 17.929 19.6015 17.929C19.81 17.929 19.9931 17.8236 20.1006 17.6635C21.4106 16.1429 22.2531 14.2116 22.4048 12.0865C22.4132 12.0507 22.4174 12.0149 22.4174 11.9791C22.4175 11.6485 22.1499 11.3789 21.8171 11.3789Z" fill="currentColor"/>
</g>
</g>
<g id="Group_3">
<g id="Group_4">
<path id="Vector_2" d="M11.9644 0.5C11.6336 0.502022 11.3662 0.769585 11.3662 1.10023V9.51001C11.3662 9.84281 11.6336 10.1124 11.9644 10.1124H20.3763C20.707 10.1124 20.9765 9.84281 20.9765 9.51001C20.6795 4.67022 16.8063 0.797016 11.9644 0.5Z" fill="currentColor"/>
</g>
</g>
<g id="Group_5">
<g id="Group_6">
<path id="Vector_3" d="M16.5873 17.2454L10.3827 11.0407C10.2774 10.9333 10.2142 10.7837 10.2142 10.6216L10.212 1.85791C10.212 1.52726 9.94458 1.25977 9.61387 1.25977C4.57391 1.5673 0.582764 5.75422 0.582764 10.8701C0.582764 16.1881 4.89411 20.5015 10.212 20.5015C12.6383 20.5015 14.8539 19.6043 16.5473 18.1236C16.6779 18.014 16.76 17.8498 16.76 17.6666C16.76 17.5044 16.6947 17.3548 16.5873 17.2454Z" fill="currentColor"/>
</g>
</g>
</g>
</g>
</svg>
