<svg width="100%" height="100%" viewBox="0 0 42 39" fill="none" xmlns="http://www.w3.org/2000/svg">
<g id="fotos">
<path id="Vector" d="M10.9367 30.6274C8.13505 30.6274 5.64297 28.8336 4.73804 26.163L4.67684 25.9618C4.46342 25.2546 4.37402 24.6599 4.37402 24.0648V12.1328L0.128482 26.3047C-0.417551 28.3892 0.826725 30.5502 2.9144 31.1261L29.9754 38.3732C30.3132 38.4606 30.6509 38.5026 30.9835 38.5026C32.7264 38.5026 34.319 37.3458 34.7654 35.6411L36.342 30.6274H10.9367Z" fill="currentColor" />
<path id="Vector_2" d="M15.7495 12.2504C17.6798 12.2504 19.2493 10.6805 19.2493 8.75019C19.2493 6.81985 17.6798 5.25 15.7495 5.25C13.8191 5.25 12.2493 6.81985 12.2493 8.75019C12.2493 10.6805 13.8191 12.2504 15.7495 12.2504Z" fill="currentColor" />
<path id="Vector_3" d="M37.6246 0H11.374C8.96269 0 6.99902 1.96367 6.99902 4.37532V23.6255C6.99902 26.0372 8.96269 28.0009 11.374 28.0009H37.6246C40.0363 28.0009 41.9999 26.0372 41.9999 23.6255V4.37532C41.9999 1.96367 40.0363 0 37.6246 0ZM11.374 3.50019H37.6246C38.1079 3.50019 38.4998 3.89209 38.4998 4.37532V16.7989L32.9715 10.348C32.3851 9.66037 31.5362 9.29282 30.6246 9.27199C29.718 9.27712 28.8676 9.67959 28.2866 10.3762L21.7868 18.1777L19.6693 16.0654C18.4725 14.8685 16.5245 14.8685 15.3292 16.0654L10.4992 20.8938V4.37532C10.4992 3.89209 10.8911 3.50019 11.374 3.50019Z" fill="currentColor" />
</g>
</svg>
