<svg width="100%" height="100%" viewBox="0 0 24 20" fill="none" xmlns="http://www.w3.org/2000/svg">
<path id="group" d="M14.4588 3.43274C15.5577 4.12172 16.3282 5.28762 16.4685 6.64096C16.9167 6.85036 17.4141 6.97077 17.9414 6.97077C19.8666 6.97077 21.4269 5.41041 21.4269 3.48553C21.4269 1.56036 19.8666 0 17.9414 0C16.0346 0.000593181 14.4879 1.53308 14.4588 3.43274ZM12.1754 10.5693C14.1005 10.5693 15.6609 9.00865 15.6609 7.08377C15.6609 5.1589 14.1003 3.59854 12.1754 3.59854C10.2505 3.59854 8.68925 5.1592 8.68925 7.08407C8.68925 9.00894 10.2505 10.5693 12.1754 10.5693ZM13.6539 10.8069H10.6963C8.23547 10.8069 6.23348 12.8092 6.23348 15.27V18.8869L6.24268 18.9435L6.49181 19.0215C8.84022 19.7553 10.8805 20 12.5598 20C15.8398 20 17.7409 19.0649 17.8581 19.0052L18.0909 18.8875H18.1158V15.27C18.1167 12.8092 16.1147 10.8069 13.6539 10.8069ZM19.4205 7.20864H16.4857C16.454 8.38284 15.9528 9.44019 15.16 10.2006C17.3473 10.8511 18.9477 12.8795 18.9477 15.2753V16.3899C21.8454 16.2837 23.5152 15.4625 23.6253 15.4073L23.8581 15.2893H23.883V11.6711C23.883 9.21062 21.881 7.20864 19.4205 7.20864ZM6.05938 6.97136C6.74124 6.97136 7.37565 6.77235 7.91307 6.43335C8.08391 5.31906 8.68124 4.34535 9.53454 3.68217C9.53809 3.61692 9.54432 3.55227 9.54432 3.48642C9.54432 1.56125 7.98366 0.000889708 6.05938 0.000889708C4.13392 0.000889708 2.57385 1.56125 2.57385 3.48642C2.57385 5.4107 4.13392 6.97136 6.05938 6.97136ZM9.1896 10.2006C8.40067 9.44404 7.90121 8.39233 7.86473 7.22525C7.75588 7.21724 7.64822 7.20864 7.53729 7.20864H4.57999C2.11917 7.20864 0.117188 9.21062 0.117188 11.6711V15.2887L0.126382 15.3444L0.375518 15.423C2.25946 16.0112 3.94083 16.2822 5.40125 16.3677V15.2753C5.40184 12.8795 7.00165 10.8517 9.1896 10.2006Z" fill="currentColor"/>
</svg>
