<svg width="100%" height="100%" viewBox="0 0 20 20" fill="none" xmlns="http://www.w3.org/2000/svg">
<path id="inicio" d="M10.7718 1.06992L10.7717 1.06979C10.5645 0.862528 10.2929 0.75 10.0001 0.75C9.70721 0.75 9.43556 0.862473 9.22826 1.06976L8.70025 0.541687L9.22826 1.06976L1.07544 9.2216L1.07254 9.22456L1.06657 9.23061C0.643696 9.65588 0.644598 10.3475 1.06856 10.7714L1.06868 10.7715C1.26295 10.9658 1.51735 11.0776 1.7923 11.0894L1.81267 11.0902L1.8248 11.0914H2.14212H2.89212V11.8414V17.8453C2.89212 18.619 3.52293 19.25 4.29733 19.25H7.32549V14.707C7.32549 13.7506 8.10237 12.9739 9.05871 12.9739H10.9415C11.8979 12.9739 12.6748 13.7506 12.6748 14.707V19.25H15.7029C16.4773 19.25 17.1081 18.619 17.1081 17.8453V11.8414V11.0914H17.8581H18.1597C18.4523 11.0914 18.724 10.979 18.9315 10.7717C19.3559 10.347 19.3562 9.6545 18.9324 9.2293M10.7718 1.06992L18.9323 9.22923M10.7718 1.06992L18.9311 9.22799L19.3992 8.75988L18.9311 9.228L18.9311 9.22804L18.9311 9.22805L18.9311 9.22807L18.9311 9.22808L18.9312 9.22809L18.9312 9.22811L18.9312 9.22812L18.9312 9.22813L18.9312 9.22814L18.9312 9.22815L18.9312 9.22817L18.9312 9.22818L18.9313 9.22819L18.9313 9.2282L18.9313 9.22821L18.9313 9.22823L18.9313 9.22824L18.9313 9.22825L18.9313 9.22827L18.9313 9.22828L18.9314 9.22829L18.9314 9.2283L18.9314 9.22831L18.9314 9.22832L18.9314 9.22834L18.9314 9.22835L18.9314 9.22836L18.9314 9.22837L18.9314 9.22838L18.9315 9.2284L18.9315 9.22841L18.9315 9.22842L18.9315 9.22844L18.9315 9.22845L18.9315 9.22846L18.9315 9.22847L18.9315 9.22848L18.9316 9.2285L18.9316 9.22851L18.9316 9.22852L18.9316 9.22853L18.9316 9.22855L18.9316 9.22856L18.9316 9.22857L18.9316 9.22858L18.9317 9.2286L18.9317 9.22861L18.9317 9.22862L18.9317 9.22863L18.9317 9.22864L18.9317 9.22865L18.9317 9.22867L18.9317 9.22868L18.9318 9.22869L18.9318 9.22871L18.9318 9.22872L18.9318 9.22873L18.9318 9.22874L18.9318 9.22875L18.9318 9.22877L18.9318 9.22878L18.9319 9.22879L18.9319 9.2288L18.9319 9.22881L18.9319 9.22883M10.7718 1.06992L18.9319 9.22883M18.9324 9.2293C18.9323 9.22927 18.9323 9.22926 18.9323 9.22923M18.9324 9.2293L18.9324 9.22932L18.9324 9.22933L18.9324 9.22934L18.9324 9.22935L19.4578 8.70403L18.9319 9.22883M18.9324 9.2293L18.9319 9.22883M18.9323 9.22923L18.9323 9.22922L18.9323 9.22921C18.9323 9.22921 18.9323 9.22923 18.9323 9.22923ZM18.9321 9.22906C18.9321 9.22908 18.9322 9.2291 18.9322 9.22912C18.9322 9.22913 18.9322 9.22914 18.9322 9.22915L18.9321 9.22906ZM18.9321 9.22906L18.9321 9.22905L18.9321 9.22904C18.9321 9.22905 18.9321 9.22905 18.9321 9.22906ZM18.932 9.22889C18.932 9.22891 18.932 9.22893 18.932 9.22895C18.932 9.22896 18.932 9.22897 18.932 9.22897L18.932 9.22889ZM18.932 9.22889L18.9319 9.22888L18.9319 9.22887M18.932 9.22889C18.9319 9.22888 18.9319 9.22888 18.9319 9.22887M18.9319 9.22887C18.9319 9.22885 18.9319 9.22884 18.9319 9.22883" fill="currentColor" stroke="currentColor" stroke-width="1.5"/>
</svg>
