<svg width="100%" height="100%" viewBox="0 0 21 19" fill="none" xmlns="http://www.w3.org/2000/svg">
<g id="listado">
<path id="Vector" d="M5.71473 0.884766H1.78269C1.07539 0.884766 0.5 1.54236 0.5 2.35069V6.84446C0.5 7.6528 1.07539 8.31039 1.78269 8.31039H5.71473C6.42203 8.31039 6.99742 7.6528 6.99742 6.84446V2.35069C6.99742 1.54236 6.42203 0.884766 5.71473 0.884766Z" fill="currentColor"/>
<path id="Vector_2" d="M5.71473 10.6895H1.78269C1.07539 10.6895 0.5 11.347 0.5 12.1554V16.6491C0.5 17.4575 1.07539 18.1151 1.78269 18.1151H5.71473C6.42203 18.1151 6.99742 17.4575 6.99742 16.6491V12.1554C6.99742 11.347 6.42203 10.6895 5.71473 10.6895Z" fill="currentColor"/>
<g id="Group 419">
<g id="Group 420">
<path id="Vector_3" d="M19.5683 3.69394H9.78635C9.27187 3.69394 8.85474 3.27404 8.85474 2.75615C8.85474 2.23825 9.27187 1.81836 9.78635 1.81836H19.5683C20.0827 1.81836 20.4999 2.23825 20.4999 2.75615C20.4999 3.27404 20.0827 3.69394 19.5683 3.69394Z" fill="currentColor"/>
<path id="Vector_4" d="M19.5683 7.40683H9.78635C9.27187 7.40683 8.85474 6.98693 8.85474 6.46904C8.85474 5.95114 9.27187 5.53125 9.78635 5.53125H19.5683C20.0827 5.53125 20.4999 5.95114 20.4999 6.46904C20.4999 6.98693 20.0827 7.40683 19.5683 7.40683Z" fill="currentColor"/>
</g>
</g>
<g id="Group 420_2">
<path id="Vector_5" d="M19.568 13.4908H9.7861C9.27162 13.4908 8.85449 13.0709 8.85449 12.553C8.85449 12.0351 9.27162 11.6152 9.7861 11.6152H19.568C20.0825 11.6152 20.4996 12.0351 20.4996 12.553C20.4996 13.0709 20.0825 13.4908 19.568 13.4908Z" fill="currentColor"/>
<path id="Vector_6" d="M19.568 17.2037H9.7861C9.27162 17.2037 8.85449 16.7838 8.85449 16.2659C8.85449 15.748 9.27162 15.3281 9.7861 15.3281H19.568C20.0825 15.3281 20.4996 15.748 20.4996 16.2659C20.4996 16.7838 20.0825 17.2037 19.568 17.2037Z" fill="currentColor"/>
</g>
</g>
</svg>
