<svg width="100%" height="100%" viewBox="0 0 16 10" fill="none" xmlns="http://www.w3.org/2000/svg">
<g id="Logo Laboral">
<path id="Trazado 10701" fill-rule="evenodd" clip-rule="evenodd" d="M8.05427 0.319237C7.71666 0.479015 7.37985 0.640481 7.04117 0.797994C6.78374 0.917704 6.52429 1.03313 6.26504 1.14888C6.16256 1.19462 6.05331 1.22727 5.95557 1.28118C5.71688 1.41283 5.5464 1.61147 5.41703 1.85037C5.31272 2.04296 5.20285 2.23291 5.08715 2.41887C4.92058 2.68658 4.74491 2.94858 4.57686 3.21535C4.53831 3.27654 4.50742 3.34497 4.48599 3.41408C4.42319 3.61658 4.46791 3.81317 4.64191 3.91653C4.94945 4.09923 5.28092 4.22872 5.65105 4.15937C5.9049 4.11182 6.11303 3.96951 6.304 3.80312C6.63268 3.51677 6.88486 3.1676 7.1145 2.8006C7.13685 2.76488 7.15924 2.72922 7.18438 2.68917C7.3901 2.75635 7.5995 2.78214 7.81514 2.76395C8.04688 2.7444 8.27003 2.69196 8.48895 2.61516C8.52348 2.60304 8.57146 2.60635 8.60589 2.62044C9.03812 2.79745 9.39292 3.09734 9.76552 3.36691C10.223 3.69787 10.6388 4.07575 11.0226 4.49303C11.3754 4.87653 11.7594 5.23125 12.1285 5.59979C12.3339 5.80488 12.5409 6.0086 12.7397 6.22006C12.8609 6.34896 12.9384 6.50633 12.9722 6.68203C12.997 6.81036 12.9748 6.93268 12.8924 7.03368C12.6328 7.35161 12.3509 7.42675 12.001 7.22067C11.8067 7.10621 11.6328 6.95138 11.4661 6.79694C11.0154 6.37925 10.5744 5.9511 10.1276 5.52925C10.0027 5.41135 9.87078 5.30092 9.74194 5.1872C9.72928 5.17601 9.71673 5.16423 9.70244 5.15548C9.64838 5.12239 9.58166 5.10297 9.5422 5.15617C9.5182 5.18854 9.51664 5.26743 9.54015 5.29997C9.63388 5.42957 9.73251 5.55808 9.84541 5.6709C10.292 6.11719 10.7454 6.55666 11.1945 7.00051C11.2865 7.09149 11.3769 7.18549 11.4575 7.28658C11.7508 7.65482 11.5758 8.11699 11.1591 8.25865C10.8683 8.35752 10.6117 8.27053 10.3922 8.07733C9.98401 7.71792 9.58445 7.34874 9.17987 6.98521C9.0711 6.88747 8.96085 6.79046 8.84336 6.7039C8.80866 6.67833 8.73502 6.66897 8.69996 6.68884C8.64082 6.72238 8.66748 6.78809 8.6923 6.84038C8.77267 7.00962 8.93061 7.10722 9.05791 7.23277C9.41309 7.58307 9.7749 7.92674 10.1254 8.28161C10.3306 8.48936 10.3266 8.79777 10.133 9.01896C9.97187 9.20296 9.7677 9.22065 9.54513 9.16723C9.35503 9.12161 9.21059 8.99774 9.05816 8.88774C8.597 8.55494 8.13671 8.22089 7.67603 7.88739C7.66691 7.88077 7.65746 7.87461 7.64815 7.86826C7.57523 7.81843 7.47873 7.82194 7.44259 7.87574C7.40625 7.92985 7.43534 8.02206 7.50783 8.07293C7.73733 8.23401 7.96854 8.39263 8.19723 8.55483C8.5027 8.7715 8.80504 8.99264 9.11193 9.20724C9.18587 9.25895 9.18001 9.30857 9.13475 9.36744C8.99636 9.54734 8.80283 9.60192 8.58813 9.59469C8.39888 9.58832 8.22822 9.51515 8.07159 9.43457C8.08456 9.31347 8.1083 9.19948 8.10653 9.08589C8.10284 8.8501 7.95703 8.6899 7.726 8.64816C7.4885 8.60527 7.28102 8.638 7.09636 8.74873C7.09636 8.62133 7.11317 8.49275 7.09304 8.37024C7.0438 8.07041 6.8352 7.88863 6.53044 7.86952C6.40457 7.86162 6.27669 7.86615 6.15121 7.87932C6.07453 7.88736 5.9974 7.91536 5.9265 7.94765C5.8586 7.97856 5.79851 8.0266 5.73035 8.07007C5.73035 8.02877 5.7295 7.98853 5.73048 7.94835C5.73569 7.73132 5.61563 7.58568 5.45724 7.45947C5.15082 7.21535 4.50919 7.15293 4.17742 7.47389C4.1574 7.49324 4.13285 7.50786 4.0955 7.53584C4.1927 7.34273 4.10034 7.20847 3.99009 7.08199C3.80682 6.87172 3.58758 6.722 3.30146 6.69398C3.15244 6.67939 3.00616 6.69088 2.88203 6.78417C2.82522 6.82688 2.78724 6.81972 2.73603 6.77782C2.23028 6.36414 1.65895 6.07078 1.04036 5.86881C0.842849 5.80432 0.637961 5.76275 0.438522 5.70365C0.325703 5.6702 0.213996 5.6291 0.10744 5.57935C-0.00187832 5.52832 -0.0213584 5.46309 0.0202112 5.35088C0.541808 3.94304 1.06343 2.53521 1.58538 1.12748C1.68099 0.869611 1.75557 0.833221 2.01148 0.934377C2.13146 0.981793 2.2445 1.04662 2.36118 1.10253C2.94736 1.38344 3.55693 1.45387 4.18562 1.28455C4.41243 1.22346 4.63316 1.13645 4.85187 1.04921C5.33745 0.855525 5.82096 0.656527 6.3033 0.454852C6.49731 0.373735 6.68129 0.26701 6.87819 0.194681C7.25389 0.0566539 7.62842 0.0624262 7.98945 0.254872C8.00902 0.265315 8.0275 0.277775 8.04649 0.289286C8.0491 0.299271 8.05169 0.309246 8.05428 0.319232" fill="currentColor"/>
<path id="Trazado 10702" fill-rule="evenodd" clip-rule="evenodd" d="M14.539 1.12961e-05C14.7607 1.56792 15.1675 3.08321 15.5816 4.60106C15.4214 4.645 15.2474 4.69003 15.075 4.74044C14.4645 4.91892 13.904 5.19111 13.4281 5.62201C13.3031 5.73521 13.1763 5.84637 13.0493 5.95733C13.02 5.98294 12.9866 6.0039 12.9427 6.03617C12.1826 5.27683 11.4243 4.51935 10.6667 3.76251C11.2563 3.8796 11.7277 3.63693 12.1531 3.25842C12.0141 3.321 11.878 3.39125 11.7355 3.44474C11.301 3.60795 10.8562 3.6339 10.4084 3.50974C10.3148 3.48378 10.2265 3.42414 10.1465 3.3654C9.80147 3.11214 9.45895 2.85536 9.11898 2.59529C9.03688 2.53247 8.97078 2.44904 8.89156 2.38187C8.86745 2.36139 8.82168 2.35111 8.78995 2.35731C8.42595 2.42819 8.06372 2.50892 7.69866 2.57344C7.59136 2.59241 7.47499 2.5779 7.36539 2.56142C7.25814 2.5453 7.18504 2.47918 7.162 2.36367C7.14736 2.2904 7.11935 2.21977 7.08295 2.14917C7.0704 2.27537 7.0592 2.40171 7.04446 2.52763C7.04 2.56566 7.03488 2.60882 7.01447 2.63901C6.69205 3.1156 6.30338 3.52257 5.81355 3.83486C5.55532 3.99944 5.29693 4.02306 5.01756 3.93713C4.92716 3.90932 4.83596 3.87425 4.75574 3.82515C4.61318 3.73787 4.56093 3.60709 4.6255 3.45469C4.68822 3.30671 4.77682 3.16868 4.8629 3.03188C5.03832 2.75307 5.22059 2.47859 5.39788 2.20098C5.43553 2.14204 5.46804 2.07904 5.49623 2.01497C5.64812 1.67016 5.89289 1.43499 6.25276 1.30204C6.56841 1.18541 6.87225 1.03535 7.17725 0.891533C7.47965 0.748937 7.78093 0.602906 8.07544 0.444891C8.32951 0.308575 8.59321 0.279663 8.86953 0.330173C9.59859 0.463479 10.331 0.563856 11.0727 0.59505C11.8689 0.628532 12.6456 0.512583 13.4123 0.311975C13.7633 0.22011 14.1114 0.117276 14.4609 0.0195705C14.4847 0.0129001 14.5089 0.00748366 14.539 0" fill="currentColor"/>
<path id="Trazado 10703" fill-rule="evenodd" clip-rule="evenodd" d="M4.53533 8.97026C4.21905 8.95433 3.83727 8.68344 3.73634 8.38842C3.68352 8.23409 3.70379 8.09468 3.83027 7.98016C3.96796 7.85551 4.10511 7.73019 4.24191 7.60454C4.56174 7.31073 4.91561 7.36096 5.22011 7.55228C5.5412 7.75405 5.60838 8.0409 5.40749 8.36074C5.25899 8.59706 5.04465 8.768 4.79973 8.89597C4.72027 8.9374 4.62393 8.9464 4.53534 8.97026" fill="currentColor"/>
<path id="Trazado 10704" fill-rule="evenodd" clip-rule="evenodd" d="M5.97305 9.62814C5.79843 9.61907 5.62102 9.59342 5.45748 9.50841C5.19105 9.36976 5.11178 9.12624 5.25807 8.86463C5.42226 8.57095 5.64799 8.32651 5.91104 8.12039C6.12715 7.95096 6.5148 7.9683 6.71445 8.14056C6.82759 8.23822 6.86973 8.37043 6.89327 8.51228C6.91315 8.6317 6.895 8.74298 6.84872 8.85501C6.74606 9.1037 6.60723 9.32319 6.39533 9.49497C6.27175 9.59515 6.13151 9.62662 5.97305 9.62814Z" fill="currentColor"/>
<path id="Trazado 10705" fill-rule="evenodd" clip-rule="evenodd" d="M2.51221 7.47517C2.52003 7.34929 2.57061 7.23669 2.65923 7.15209C2.76634 7.04989 2.87862 6.94429 3.00761 6.87586C3.18157 6.78361 3.37315 6.81476 3.54081 6.90701C3.69757 6.99323 3.82433 7.12157 3.89868 7.28869C3.91821 7.33261 3.92812 7.40204 3.90681 7.43924C3.81206 7.60448 3.71681 7.77235 3.59798 7.92008C3.46776 8.08204 3.28779 8.13661 3.09113 8.03839C2.95134 7.96862 2.81371 7.89073 2.68677 7.80012C2.58136 7.72486 2.51666 7.61329 2.51221 7.47518" fill="currentColor"/>
<path id="Trazado 10706" fill-rule="evenodd" clip-rule="evenodd" d="M7.89113 9.26419C7.87409 9.49402 7.75434 9.73288 7.51196 9.90204C7.39502 9.98367 7.26438 10.0187 7.11907 9.98984C6.94268 9.95479 6.77607 9.90115 6.64088 9.77525C6.57878 9.71744 6.55978 9.65511 6.61694 9.58251C6.80332 9.34585 6.97682 9.09741 7.1804 8.87671C7.307 8.73938 7.49419 8.75216 7.66446 8.81435C7.81969 8.87113 7.8915 9.00203 7.89113 9.26419" fill="currentColor"/>
</g>
</svg>
